<svg id="Layer_1" data-name="Layer 1" xmlns="http://www.w3.org/2000/svg" xmlns:xlink="http://www.w3.org/1999/xlink" viewBox="0 0 255 410"><defs><style>.cls-1{fill:none;}.cls-2,.cls-24{font-size:18px;}.cls-13,.cls-2,.cls-26,.cls-29,.cls-30,.cls-5{fill:#21293a;}.cls-13,.cls-2,.cls-26,.cls-30{font-family:SFProDisplay-Bold, SF Pro Display;font-weight:700;}.cls-3{letter-spacing:0em;}.cls-4{letter-spacing:-0.01em;}.cls-5{font-size:14px;}.cls-18,.cls-24,.cls-5{font-family:SFProDisplay-Regular, SF Pro Display;}.cls-6{letter-spacing:-0.02em;}.cls-7{letter-spacing:-0.01em;}.cls-8{letter-spacing:-0.01em;}.cls-9{letter-spacing:-0.05em;}.cls-10{fill:#a8d126;}.cls-11{fill:#fff;}.cls-12{fill:#e1e7ed;}.cls-13,.cls-18{font-size:11.7px;}.cls-14{letter-spacing:-0.06em;}.cls-15{letter-spacing:0em;}.cls-16{letter-spacing:-0.02em;}.cls-17{opacity:0.6;}.cls-18,.cls-24{fill:#3c3c43;}.cls-19{letter-spacing:-0.05em;}.cls-20{letter-spacing:-0.02em;}.cls-21{letter-spacing:-0.01em;}.cls-22{letter-spacing:0em;}.cls-23{clip-path:url(#clip-path);}.cls-25{letter-spacing:-0.05em;}.cls-26{font-size:13.7px;}.cls-27{fill:#005c30;}.cls-28{fill:#16a850;}.cls-29{opacity:0.5;}.cls-30{font-size:10.96px;}.cls-31{letter-spacing:-0.03em;}</style><clipPath id="clip-path"><circle class="cls-1" cx="205" cy="63.01" r="50"/></clipPath></defs><text class="cls-2" transform="translate(71.83 333.31)">H<tspan class="cls-3" x="13.13" y="0">o</tspan><tspan x="23.35" y="0">w </tspan><tspan class="cls-4" x="41.13" y="0">t</tspan><tspan x="47.4" y="0">o S</tspan><tspan class="cls-3" x="72.63" y="0">t</tspan><tspan x="78.94" y="0">art?</tspan></text><text class="cls-5" transform="translate(66.23 373.4)">select a wo<tspan class="cls-6" x="65.16" y="0">r</tspan><tspan x="69.13" y="0">d </tspan><tspan class="cls-7" x="79.75" y="0">t</tspan><tspan x="83.77" y="0">o s</tspan><tspan class="cls-8" x="100.58" y="0">t</tspan><tspan x="104.67" y="0">art</tspan><tspan class="cls-9" x="120.22" y="0">.</tspan></text><text class="cls-5" transform="translate(44.57 356.61)">Click on the</text><text class="cls-5" transform="translate(139.92 356.6)">symbol and </text><rect class="cls-1" x="117.66" y="342.76" width="17.81" height="17.81"/><path class="cls-10" d="M135,348.88a9.23,9.23,0,0,0-1.28-2.45,9.1,9.1,0,0,0-1.94-1.93,8.81,8.81,0,0,0-2.45-1.28,8.72,8.72,0,0,0-5.59,0,8.89,8.89,0,0,0-2.44,1.28,9.06,9.06,0,0,0-1.93,1.93,9,9,0,0,0-1.28,2.45,8.59,8.59,0,0,0-.45,2.79,8.42,8.42,0,0,0,.46,2.79,9.2,9.2,0,0,0,1.27,2.45,9.1,9.1,0,0,0,1.94,1.93,8.72,8.72,0,0,0,2.44,1.27,8.72,8.72,0,0,0,5.59,0,8.86,8.86,0,0,0,2.44-1.27,9.34,9.34,0,0,0,1.94-1.93,9.23,9.23,0,0,0,1.28-2.45,8.68,8.68,0,0,0,.45-2.79A8.59,8.59,0,0,0,135,348.88Zm-1.2,5.2a7.69,7.69,0,0,1-2.74,3.75,8,8,0,0,1-2.1,1.08,7.67,7.67,0,0,1-4.83,0,7.82,7.82,0,0,1-2.09-1.08,7.59,7.59,0,0,1-1.65-1.65,7.73,7.73,0,0,1-1.09-6.93,7.59,7.59,0,0,1,2.73-3.75,7.88,7.88,0,0,1,2.1-1.08,7.83,7.83,0,0,1,4.82,0,7.73,7.73,0,0,1,2.1,1.08,7.59,7.59,0,0,1,1.65,1.65,7.49,7.49,0,0,1,1.47,4.52A7.41,7.41,0,0,1,133.82,354.08Z"/><path class="cls-10" d="M129.93,351.05h-2.74V348.3a.73.73,0,0,0-.18-.52.58.58,0,0,0-.47-.19.53.53,0,0,0-.45.2.76.76,0,0,0-.16.51v2.75h-2.74a.73.73,0,0,0-.52.17.58.58,0,0,0-.19.47.54.54,0,0,0,.2.46.76.76,0,0,0,.51.16h2.74v2.62a.76.76,0,0,0,.16.51.55.55,0,0,0,.45.19.58.58,0,0,0,.47-.19.72.72,0,0,0,.18-.51v-2.62h2.74a.76.76,0,0,0,.51-.16.57.57,0,0,0,.2-.46.62.62,0,0,0-.19-.47A.73.73,0,0,0,129.93,351.05Z"/><g id="Color-4"><rect class="cls-11" x="0.5" y="48.31" width="216.75" height="84.66" rx="9.25"/><path class="cls-12" d="M208,48.81a8.76,8.76,0,0,1,8.75,8.75v66.16a8.77,8.77,0,0,1-8.75,8.75H9.75A8.77,8.77,0,0,1,1,123.72V57.56a8.76,8.76,0,0,1,8.75-8.75H208m0-1H9.75A9.75,9.75,0,0,0,0,57.56v66.16a9.76,9.76,0,0,0,9.75,9.75H208a9.76,9.76,0,0,0,9.75-9.75V57.56A9.75,9.75,0,0,0,208,47.81Z"/></g><text class="cls-13" transform="translate(13 65.8)">My <tspan class="cls-14" x="18.7" y="0">W</tspan><tspan class="cls-15" x="29.31" y="0">o</tspan><tspan class="cls-16" x="36.01" y="0">r</tspan><tspan x="40.06" y="0">d</tspan></text><rect id="Separator-8" class="cls-12" y="77.57" width="217.75" height="0.65"/><g class="cls-17"><text class="cls-18" transform="translate(64.69 105.09)">No <tspan class="cls-19" x="16.79" y="0">W</tspan><tspan x="26.97" y="0">o</tspan><tspan class="cls-20" x="33.18" y="0">r</tspan><tspan x="36.5" y="0">d Selec</tspan><tspan class="cls-21" x="72.55" y="0">t</tspan><tspan class="cls-22" x="75.91" y="0">ed</tspan></text></g><rect class="cls-1" x="189.15" y="55.21" width="15.6" height="15.6"/><path class="cls-10" d="M189.15,63a7.8,7.8,0,1,1,7.8,7.8A7.84,7.84,0,0,1,189.15,63Zm14.74,0A6.94,6.94,0,1,0,197,70,6.94,6.94,0,0,0,203.89,63Zm-7.38,3.07V63.46h-2.68a.43.43,0,0,1-.47-.42.42.42,0,0,1,.47-.44h2.68V59.91a.42.42,0,0,1,.42-.47.42.42,0,0,1,.44.47V62.6h2.69a.43.43,0,1,1,0,.86h-2.69v2.62a.43.43,0,0,1-.44.47A.42.42,0,0,1,196.51,66.08Z"/><g class="cls-23"><g id="Color-4-2" data-name="Color-4"><rect class="cls-11" x="-97.5" y="40.12" width="334" height="130.79" rx="14.5"/><path class="cls-12" d="M222,40.62a14,14,0,0,1,14,14V156.4a14,14,0,0,1-14,14H-83a14,14,0,0,1-14-14V54.62a14,14,0,0,1,14-14H222m0-1H-83a15,15,0,0,0-15,15V156.4a15,15,0,0,0,15,15H222a15,15,0,0,0,15-15V54.62a15,15,0,0,0-15-15Z"/></g><rect id="Separator-8-2" data-name="Separator-8" class="cls-12" x="-98" y="85.4" width="335" height="1"/><g class="cls-17"><text class="cls-24" transform="translate(1.52 127.75)">No <tspan class="cls-25" x="25.83" y="0">W</tspan><tspan x="41.49" y="0">o</tspan><tspan class="cls-6" x="51.05" y="0">r</tspan><tspan x="56.15" y="0">d Selec</tspan><tspan class="cls-7" x="111.62" y="0">t</tspan><tspan x="116.78" y="0">ed</tspan></text></g><rect class="cls-1" x="193" y="51.01" width="24" height="24"/><path class="cls-10" d="M193,63a12,12,0,1,1,12,12A12.06,12.06,0,0,1,193,63Zm22.68,0A10.68,10.68,0,1,0,205,73.69,10.68,10.68,0,0,0,215.68,63Zm-11.36,4.72v-4H200.2a.66.66,0,1,1,0-1.32h4.12V58.24a.65.65,0,0,1,.65-.72.65.65,0,0,1,.68.72v4.14h4.13a.66.66,0,1,1,0,1.32h-4.13v4a.67.67,0,1,1-1.33,0Z"/></g><path class="cls-12" d="M205,14a49,49,0,1,1-49,49,49.05,49.05,0,0,1,49-49m0-1a50,50,0,1,0,50,50,50,50,0,0,0-50-50Z"/><path class="cls-10" d="M232.62,94.65A14.83,14.83,0,0,1,224,93.06l-10.36-5a6.57,6.57,0,0,1-.65-.39c-.21-.16-.4-.3-.57-.45a2.67,2.67,0,0,1-.88-2.14,3.14,3.14,0,0,1,.95-2,2.88,2.88,0,0,1,1.57-.77,3.49,3.49,0,0,1,2,.33L222,85.2a.25.25,0,0,0,.29,0c.07-.07.06-.15,0-.23L208.87,71.56a3.51,3.51,0,0,1-1-1.55,2.81,2.81,0,0,1,0-1.6,3.25,3.25,0,0,1,.85-1.4,3.09,3.09,0,0,1,1.37-.82,2.94,2.94,0,0,1,1.61,0,3.37,3.37,0,0,1,1.56,1l5.22,5.22a5.31,5.31,0,0,1,1-1.49,3.32,3.32,0,0,1,1.88-1,2.86,2.86,0,0,1,1.93.4,6.37,6.37,0,0,1,1.11-1.59,3.22,3.22,0,0,1,1.87-1,2.92,2.92,0,0,1,1.91.38,4.56,4.56,0,0,1,4-1.44A8.84,8.84,0,0,1,237,69.42L239.54,72a17,17,0,0,1,3.56,4.94,11.4,11.4,0,0,1,1.08,4.93,11.25,11.25,0,0,1-1.09,4.67,14.8,14.8,0,0,1-3,4.16A13.09,13.09,0,0,1,232.62,94.65Z"/><path class="cls-11" d="M242.57,84.71a9.88,9.88,0,0,0,0-5.87,14.65,14.65,0,0,0-3.88-6l-2.53-2.52a8.3,8.3,0,0,0-3.87-2.48,3.23,3.23,0,0,0-3.11,1l1.91,1.92a.82.82,0,0,1,.31.56.57.57,0,0,1-.17.4.54.54,0,0,1-.42.18.89.89,0,0,1-.55-.31l-1.82-1.82a2.54,2.54,0,0,0-1.68-.86,2.06,2.06,0,0,0-1.58.69,4.78,4.78,0,0,0-.95,1.41L227,73.71a.83.83,0,0,1,.3.55.54.54,0,0,1-.17.42.51.51,0,0,1-.42.17.83.83,0,0,1-.55-.3l-2.62-2.62a2.63,2.63,0,0,0-1.7-.89,2,2,0,0,0-1.58.69,4.61,4.61,0,0,0-1,1.41l3.6,3.6a1.09,1.09,0,0,1,.28.47.52.52,0,0,1-.16.49.49.49,0,0,1-.48.15,1,1,0,0,1-.48-.26L212.42,68a2.33,2.33,0,0,0-1.48-.75,1.71,1.71,0,0,0-1.41.56,1.8,1.8,0,0,0-.59,1.44,2.33,2.33,0,0,0,.74,1.49l13.75,13.74a1.11,1.11,0,0,1,.37.85,1.19,1.19,0,0,1-.37.79,1.25,1.25,0,0,1-.67.37,1.44,1.44,0,0,1-.84-.12l-6.28-2.67a2,2,0,0,0-2.39.2,1.75,1.75,0,0,0-.57,1.29,1.63,1.63,0,0,0,.5,1.23,2.93,2.93,0,0,0,.45.37,5.5,5.5,0,0,0,.48.28l10.34,5a15.08,15.08,0,0,0,5.39,1.52,11.66,11.66,0,0,0,5.06-.7,13.37,13.37,0,0,0,7.67-8.12Z"/><g id="Color-4-3" data-name="Color-4"><rect class="cls-11" x="0.5" y="183.97" width="254" height="52.28" rx="10.92"/><path class="cls-12" d="M243.58,184.47A10.42,10.42,0,0,1,254,194.88v30.45a10.43,10.43,0,0,1-10.42,10.42H11.42A10.43,10.43,0,0,1,1,225.33V194.88a10.42,10.42,0,0,1,10.42-10.41H243.58m0-1H11.42A11.41,11.41,0,0,0,0,194.88v30.45a11.42,11.42,0,0,0,11.42,11.42H243.58A11.42,11.42,0,0,0,255,225.33V194.88a11.41,11.41,0,0,0-11.42-11.41Z"/></g><text class="cls-26" transform="translate(44.61 214.93)">FIT</text><rect class="cls-10" x="19.41" y="200.42" width="9.9" height="9.9" rx="1.52" transform="translate(-68.77 20.72) rotate(-20)"/><path class="cls-11" d="M22.52,202.61l1.48-.54,4.31,5.28-1.33.48-1-1.3-2.13.78.07,1.63-1.33.49Zm1.28,3.65,1.56-.57-1.66-2.18h0Z"/><rect class="cls-27" x="25.68" y="209.9" width="9.9" height="9.9" rx="1.52" transform="translate(75.33 2.48) rotate(20)"/><path class="cls-11" d="M27.86,213.84h0c.71-2,2.26-2.72,4-2.07a2.62,2.62,0,0,1,1.83,3.16v0l-1.23-.45v-.07a1.42,1.42,0,0,0-1-1.61c-1-.35-1.87.2-2.33,1.47h0c-.47,1.27-.13,2.29.83,2.64a1.45,1.45,0,0,0,1.82-.62l0,0,1.24.45,0,0A2.64,2.64,0,0,1,29.6,218C27.83,217.38,27.15,215.79,27.86,213.84Z"/><rect class="cls-1" x="15.22" y="199.45" width="21.31" height="21.31"/><rect class="cls-28" x="15.22" y="210.87" width="9.9" height="9.9" rx="1.52"/><path class="cls-11" d="M17.63,212.6h2.8c1.21,0,2,.62,2,1.6h0a1.43,1.43,0,0,1-1.23,1.4v0a1.57,1.57,0,0,1,1.54,1.55h0c0,1.14-.85,1.85-2.23,1.85H17.63Zm1.35,1v1.66h1c.72,0,1.13-.31,1.13-.85h0c0-.51-.37-.8-1-.8Zm0,2.58V218h1.16c.77,0,1.2-.32,1.2-.93h0c0-.59-.44-.91-1.23-.91Z"/><rect class="cls-1" x="221.51" y="200.97" width="18.27" height="18.27"/><path class="cls-29" d="M238.19,210.11l-8.57-8a.64.64,0,0,1-.18-.45.63.63,0,0,1,.09-.33.59.59,0,0,1,.24-.23.57.57,0,0,1,.32-.09.63.63,0,0,1,.46.19l9,8.45a1,1,0,0,1,.16.22.61.61,0,0,1,.06.28.6.6,0,0,1-.06.27.65.65,0,0,1-.16.21l-9,8.46a.59.59,0,0,1-.46.19.66.66,0,0,1-.32-.08.76.76,0,0,1-.24-.23.67.67,0,0,1,.09-.79Z"/><g id="Color-4-4" data-name="Color-4"><rect class="cls-11" x="25.9" y="244.76" width="203.2" height="41.83" rx="8.73"/><path class="cls-12" d="M220.37,245.16a8.35,8.35,0,0,1,8.33,8.34v24.35a8.35,8.35,0,0,1-8.33,8.34H34.63a8.35,8.35,0,0,1-8.33-8.34V253.5a8.35,8.35,0,0,1,8.33-8.34H220.37m0-.8H34.63a9.14,9.14,0,0,0-9.13,9.14v24.35A9.14,9.14,0,0,0,34.63,287H220.37a9.14,9.14,0,0,0,9.13-9.14V253.5a9.14,9.14,0,0,0-9.13-9.14Z"/></g><text class="cls-30" transform="translate(61.19 269.54)"><tspan class="cls-31">A</tspan><tspan x="7.21" y="0">CE</tspan></text><rect class="cls-10" x="41.03" y="257.92" width="7.92" height="7.92" rx="1.22" transform="translate(-86.86 31.18) rotate(-20)"/><path class="cls-11" d="M43.51,259.68l1.19-.44,3.45,4.23-1.06.39-.8-1.05-1.71.63.07,1.3-1.07.39Zm1,2.91,1.24-.45-1.32-1.74h0Z"/><rect class="cls-27" x="46.04" y="265.51" width="7.92" height="7.92" rx="1.22" transform="translate(95.18 -0.85) rotate(20)"/><path class="cls-11" d="M47.79,268.66h0A2.37,2.37,0,0,1,51,267a2.11,2.11,0,0,1,1.47,2.54v0l-1-.36v-.06a1.13,1.13,0,0,0-.79-1.29c-.77-.28-1.5.16-1.86,1.17h0c-.37,1-.1,1.83.67,2.11a1.17,1.17,0,0,0,1.46-.5l0,0,1,.36v0a2.12,2.12,0,0,1-2.76,1A2.38,2.38,0,0,1,47.79,268.66Z"/><rect class="cls-1" x="37.68" y="257.15" width="17.05" height="17.05"/><rect class="cls-28" x="37.68" y="266.28" width="7.92" height="7.92" rx="1.22"/><path class="cls-11" d="M39.61,267.67h2.24c1,0,1.57.49,1.57,1.28h0a1.12,1.12,0,0,1-1,1.11v0a1.27,1.27,0,0,1,1.24,1.25h0c0,.91-.68,1.48-1.78,1.48H39.61Zm1.07.8v1.33h.78c.57,0,.9-.26.9-.68h0c0-.41-.29-.64-.79-.64Zm0,2.06V272h.93c.62,0,1-.25,1-.74h0c0-.47-.35-.73-1-.73Z"/><rect class="cls-1" x="202.71" y="258.37" width="14.61" height="14.61"/><path class="cls-29" d="M216.05,265.68l-6.85-6.44a.49.49,0,0,1-.07-.62.66.66,0,0,1,.18-.19.6.6,0,0,1,.27-.06.48.48,0,0,1,.36.15l7.21,6.76a.59.59,0,0,1,.13.18.48.48,0,0,1,0,.22.49.49,0,0,1,0,.21.55.55,0,0,1-.13.17l-7.21,6.77a.48.48,0,0,1-.36.15.5.5,0,0,1-.27-.07.52.52,0,0,1-.18-.18.5.5,0,0,1-.08-.27.49.49,0,0,1,.15-.36Z"/><path class="cls-10" d="M223.43,252.9a15,15,0,0,1-8.66-1.59l-10.36-4.95a7.6,7.6,0,0,1-.65-.4,4.72,4.72,0,0,1-.57-.45,2.62,2.62,0,0,1-.88-2.13,3.08,3.08,0,0,1,.95-2,2.82,2.82,0,0,1,1.57-.77,3.56,3.56,0,0,1,2,.32l5.92,2.56c.13.05.23.05.29,0s.07-.15,0-.23l-13.38-13.38a3.54,3.54,0,0,1-1-1.56,2.81,2.81,0,0,1,0-1.6,3.31,3.31,0,0,1,.85-1.4,3,3,0,0,1,3-.82,3.54,3.54,0,0,1,1.56,1l5.22,5.21a4.93,4.93,0,0,1,.47-.8,5.54,5.54,0,0,1,.57-.68,3.29,3.29,0,0,1,1.88-1,2.82,2.82,0,0,1,1.93.4,6,6,0,0,1,1.11-1.6,3.31,3.31,0,0,1,1.86-1,2.9,2.9,0,0,1,1.91.39,4.58,4.58,0,0,1,4.05-1.44,8.84,8.84,0,0,1,4.66,2.79l2.58,2.58a16.81,16.81,0,0,1,3.56,4.93,11.11,11.11,0,0,1,0,9.6,15,15,0,0,1-3,4.17A13.14,13.14,0,0,1,223.43,252.9Z"/><path class="cls-11" d="M233.39,243a9.91,9.91,0,0,0,0-5.88,14.62,14.62,0,0,0-3.88-6L227,228.54a8.26,8.26,0,0,0-3.87-2.47,3.2,3.2,0,0,0-3.12,1l1.92,1.91a.78.78,0,0,1,.3.56.54.54,0,0,1-.16.41.61.61,0,0,1-.42.17.82.82,0,0,1-.55-.31L219.24,228a2.51,2.51,0,0,0-1.68-.87,2.1,2.1,0,0,0-1.59.7,4.76,4.76,0,0,0-.94,1.41l2.76,2.75a.84.84,0,0,1,.3.56.57.57,0,0,1-.17.42.57.57,0,0,1-.42.17.83.83,0,0,1-.55-.3l-2.63-2.63a2.64,2.64,0,0,0-1.69-.89A2.09,2.09,0,0,0,211,230a5,5,0,0,0-.95,1.42l3.6,3.6a1,1,0,0,1,.27.47.49.49,0,0,1-.16.48.51.51,0,0,1-.47.16,1,1,0,0,1-.48-.27l-9.62-9.61a2.35,2.35,0,0,0-1.47-.76,1.77,1.77,0,0,0-1.42.57,1.82,1.82,0,0,0-.58,1.43,2.31,2.31,0,0,0,.74,1.49l13.75,13.75a1.11,1.11,0,0,1,.37.85,1.19,1.19,0,0,1-.37.79,1.34,1.34,0,0,1-.67.36,1.29,1.29,0,0,1-.84-.12l-6.28-2.67a2,2,0,0,0-2.39.2,1.83,1.83,0,0,0-.58,1.29,1.68,1.68,0,0,0,.51,1.24,2.93,2.93,0,0,0,.45.37,3.72,3.72,0,0,0,.48.27l10.33,5a15.22,15.22,0,0,0,5.39,1.53,11.56,11.56,0,0,0,5.07-.71,12.38,12.38,0,0,0,4.43-2.92A12.54,12.54,0,0,0,233.39,243Z"/><path class="cls-10" d="M120.35,143.9v13.65h-6.74a1.16,1.16,0,0,0-.8.27.92.92,0,0,0-.31.73,1,1,0,0,0,.13.52,2.52,2.52,0,0,0,.37.49l13,13.07a3.37,3.37,0,0,0,.84.68,1.33,1.33,0,0,0,.62.16,1.36,1.36,0,0,0,.62-.16,3.37,3.37,0,0,0,.84-.68l13-13.07a2,2,0,0,0,.37-.49,1,1,0,0,0,.13-.52.92.92,0,0,0-.31-.73,1.17,1.17,0,0,0-.81-.27h-6.73V143.9a.43.43,0,0,0-.43-.43h0a.43.43,0,0,0-.44.43V158a.33.33,0,0,0,.38.37h6.95c.25,0,.37.09.37.25a.53.53,0,0,1-.19.37l-13,13a2,2,0,0,1-.45.37.66.66,0,0,1-.7,0,2,2,0,0,1-.44-.37l-13-13a.53.53,0,0,1-.19-.37c0-.16.12-.25.37-.25h6.95a.37.37,0,0,0,.37-.37V143.9a.43.43,0,0,0-.44-.43h0A.43.43,0,0,0,120.35,143.9Z"/><rect class="cls-1" width="255" height="300"/></svg>